<svg width="350" height="483" viewBox="0 0 350 483" fill="none" xmlns="http://www.w3.org/2000/svg">
<g clip-path="url(#clip0_623_5)">
<path d="M133.752 133.796H216.248V349.366H133.752V133.796ZM0 483H350V0H0V483Z" fill="#FF9640"/>
<path d="M261.158 351.317H274.988V328.557H286.541V351.317H305.091V320.916H316.643V364.16H249.768V321.892H261.158" fill="white"/>
<path d="M275.477 278.648C275.477 274.909 274.663 273.283 273.524 272.145C272.222 271.007 270.432 270.194 268.48 270.194C266.527 270.194 264.575 271.007 263.273 272.145C261.971 273.283 261.158 274.909 261.158 278.648V291.653H275.477V278.648ZM287.029 291.653H316.644V304.497H249.768V277.835C249.768 271.007 251.72 266.617 254.812 263.203C258.229 259.627 263.11 257.351 268.48 257.351C273.849 257.351 278.731 259.627 282.148 263.203C283.938 264.992 285.239 267.268 286.053 269.869L316.806 244.833V260.765L287.192 284.5V291.653H287.029Z" fill="white"/>
<path d="M298.745 232.802C302.975 228.901 306.067 222.885 306.067 216.545C306.067 210.693 302.487 206.466 297.606 206.466C288.982 206.466 288.005 219.309 282.636 228.413C279.544 233.778 274.988 238.167 267.503 238.167C255.625 238.167 248.628 226.787 248.628 215.407C248.628 208.417 250.256 201.914 254.974 195.411L264.574 202.239C262.134 205.003 260.181 209.555 260.181 214.107C260.181 219.146 262.296 224.674 267.503 224.674C278.243 224.674 274.988 192.972 297.443 192.972C309.321 192.972 317.457 203.865 317.457 216.22C317.457 225.487 313.714 233.94 307.369 241.094" fill="white"/>
<path d="M70.2928 238.818V272.47H100.395V285.313H33.3564V272.47H58.74V238.818H33.3564V225.974H100.395V238.818" fill="white"/>
<path d="M74.0352 188.583V171.513L54.184 179.967L74.0352 188.583ZM100.395 213.294L33.3564 184.519V175.415L100.395 146.639V160.133L85.588 166.473V193.46L100.395 199.8V213.294Z" fill="white"/>
<path d="M33.3564 134.121V121.116H89.005V91.8529H100.395V134.121" fill="white"/>
<path d="M33.3564 76.7337V63.8905H89.005V34.4651H100.395V76.7337" fill="white"/>
<path d="M45.7228 394.236V408.054H69.4792V419.434H45.7228V449.51H32.7056V382.693H76.1505V394.236" fill="white"/>
<path d="M90.7949 382.693H103.649V438.13H135.216V449.51H90.7949" fill="white"/>
<path d="M218.689 382.693H232.52L247.164 424.474L262.785 382.693H272.385L288.168 424.474L302.813 382.693H316.643L293.05 449.51H283.45L267.666 407.242L251.883 449.51H242.283" fill="white"/>
<path d="M178.499 438.943C191.353 438.943 200.953 428.701 200.953 416.021C200.953 403.503 191.353 393.098 178.499 393.098C165.644 393.098 156.207 403.503 156.207 416.021C156.207 428.701 165.644 438.943 178.499 438.943ZM178.499 381.718C199.489 381.718 213.971 397 213.971 416.021C213.971 435.041 199.489 450.323 178.499 450.323C157.508 450.323 143.027 435.041 143.027 416.021C143.027 397.162 157.508 381.718 178.499 381.718Z" fill="white"/>
<path d="M292.887 44.8696V58.6882H314.366V70.2308H292.887V100.307H280.033V33.4896H321.2V44.8696" fill="white"/>
<path d="M231.218 89.7395C244.072 89.7395 253.673 79.4974 253.673 66.8169C253.673 54.2989 244.072 43.8943 231.218 43.8943C218.363 43.8943 208.763 54.1363 208.763 66.8169C208.763 79.4974 218.363 89.7395 231.218 89.7395ZM231.218 32.5143C252.208 32.5143 266.69 47.796 266.69 66.8169C266.69 85.8377 252.208 101.119 231.218 101.119C210.228 101.119 195.746 85.8377 195.746 66.8169C195.746 47.796 210.228 32.5143 231.218 32.5143Z" fill="white"/>
</g>
<defs>
<clipPath id="clip0_623_5">
<rect width="350" height="483" fill="white"/>
</clipPath>
</defs>
</svg>
